<svg xmlns="http://www.w3.org/2000/svg" enable-background="new 0 0 1000 1000" viewBox="0 0 1000 1000" id="investing-in-bitcoin"><path fill="#215bc1" d="M804.74 190.54 529.14 66.66a42.475 42.475 0 0 0-32.48-.97L214.19 172.98a42.457 42.457 0 0 0-23.65 22.28L66.66 470.86a42.475 42.475 0 0 0-.97 32.48l107.28 282.47c4 10.53 12.01 19.03 22.28 23.65l275.6 123.88a42.475 42.475 0 0 0 32.48.97L785.8 827.03c10.53-4 19.03-12.01 23.65-22.28l123.88-275.6a42.475 42.475 0 0 0 .97-32.48L827.02 214.19a42.393 42.393 0 0 0-22.28-23.65z" opacity=".7"></path><path fill="#215bc1" d="M795.08 199.64 528.75 79.93a42.475 42.475 0 0 0-32.48-.97L223.29 182.64a42.457 42.457 0 0 0-23.65 22.28L79.93 471.25a42.475 42.475 0 0 0-.97 32.48L182.63 776.7c4 10.53 12.01 19.03 22.28 23.65l266.33 119.71a42.475 42.475 0 0 0 32.48.97l272.97-103.67c10.53-4 19.03-12.01 23.65-22.28l119.71-266.33a42.475 42.475 0 0 0 .97-32.48L817.36 223.29a42.489 42.489 0 0 0-22.28-23.65z" opacity=".7"></path><path fill="#a9e8ef" d="M458.82 321.68c-38.06-16.26-82.08 1.42-98.34 39.47-16.25 38.06 1.42 82.08 39.48 98.33 38.05 16.25 82.08-1.42 98.33-39.47 16.26-38.05-1.41-82.08-39.47-98.33zm-47.9 112.14c-23.88-10.2-34.98-37.83-24.78-61.71 10.2-23.88 37.84-34.98 61.72-24.77 23.88 10.2 34.98 37.83 24.78 61.71-10.2 23.89-37.83 34.98-61.72 24.77z"></path><path fill="#a9e8ef" d="M441.77 361.59c-16.01-6.84-34.53.6-41.37 16.61-6.84 16.01.6 34.53 16.61 41.37 16 6.84 34.53-.59 41.36-16.6 6.85-16.01-.6-34.54-16.6-41.38zm21.11-14.94-27.56-11.77 23.56-46.35 21.19 9.05zm-40.25 94.24-27.62-11.62-16.94 49.15 21.25 8.94zm57.83-55.96L471 356.49l50.32-13.09 7.27 21.88zm-8.51 45.84 10.06-28.24 47.71 20.66-7.74 21.73zm-97.49-44.46 10.64-28.02-49.72-15.19-8.2 21.55zm20.52-37.89 27.08-12.84-25.34-45.39-20.83 9.87zm67.86 84.43-27.32 12.32 24.47 45.87 21.02-9.48zM375.3 395.9l8.93 28.61-50.56 12.14-6.86-22.01zm414.88 162.94c-24.61-11.08-53.09.97-63.6 26.9-10.52 25.94.92 55.94 25.53 67.02 24.62 11.08 53.09-.97 63.61-26.9 10.51-25.95-.92-55.95-25.54-67.02zm-30.98 76.43c-15.44-6.95-22.62-25.78-16.02-42.06 6.6-16.28 24.47-23.84 39.92-16.88 15.45 6.95 22.62 25.78 16.02 42.06-6.6 16.27-24.47 23.83-39.92 16.88z"></path><path fill="#a9e8ef" d="M779.15 586.04c-10.35-4.66-22.33.41-26.75 11.32-4.43 10.91.39 23.54 10.74 28.19 10.35 4.66 22.33-.4 26.75-11.31 4.42-10.92-.38-23.55-10.74-28.2zm13.65-10.19-17.82-8.02 15.24-31.59 13.71 6.17zm-26.03 64.23-17.87-7.92-10.95 33.5 13.75 6.1zm37.41-38.14-6.12-19.38 32.54-8.92 4.71 14.91zm-5.5 31.25 6.49-19.25 30.87 14.08-5 14.81zm-63.07-30.31 6.88-19.1-32.15-10.34-5.3 14.68zm13.28-25.82 17.52-8.75-16.39-30.94-13.48 6.73zm43.89 57.54-17.67 8.4 15.83 31.26 13.59-6.46zm-56.62-25.18 5.77 19.5-32.69 8.27-4.44-15z"></path><path fill="#80d2d6" d="M163.96 403.42c7.56-1.51 22.86-2.65 37.21-2.65 17.57 0 28.34 1.7 37.59 7.18 8.89 4.72 15.3 13.41 15.3 24.94 0 11.33-6.61 21.91-20.97 27.2v.38c14.55 3.97 25.31 14.93 25.31 31.36 0 11.52-5.28 20.59-13.22 27.02-9.25 7.36-24.74 11.52-50.06 11.52-14.17 0-24.75-.95-31.17-1.89V403.42zm28.53 48.74h9.44c15.11 0 23.24-6.24 23.24-15.68 0-9.64-7.37-14.73-20.4-14.73-6.24 0-9.83.38-12.27.75v29.66zm0 56.48c2.83.38 6.23.38 11.15.38 13.03 0 24.55-4.91 24.55-18.32 0-12.85-11.52-17.95-25.88-17.95h-9.82v35.89z"></path><path fill="#80d2d6" d="M178.43 382.53h13.42v31.65h-13.42zm28.78 0h13.43v31.65h-13.43zm-28.78 132.35h13.42v31.65h-13.42zm28.78 0h13.43v31.65h-13.43z"></path><path fill="#a9e8ef" d="M516.89 386.03h8.98v243.2h-8.98z" transform="rotate(-89.893 521.382 507.623)"></path><path fill="#a9e8ef" d="M466.34 410.87h8.98v243.2h-8.98z" transform="rotate(-89.889 470.827 532.469)"></path><path fill="#a9e8ef" d="M558.33 434.78h8.98v243.2h-8.98z" transform="rotate(-89.927 562.821 556.376)"></path><path fill="#a9e8ef" d="M432.91 460.09h8.98v243.2h-8.98z" transform="rotate(-89.893 437.399 581.686)"></path><path fill="#d0cfd9" d="M534.19 712.75c0 8.87-72.3 16.06-161.5 16.06-89.19 0-161.5-7.19-161.5-16.06 0-8.87 72.31-16.06 161.5-16.06 89.2.01 161.5 7.2 161.5 16.06z"></path><path fill="#d0cfd9" d="M791.89 722.02c0 8.87-72.31 16.06-161.51 16.06-89.19 0-161.5-7.19-161.5-16.06 0-8.87 72.31-16.06 161.5-16.06 89.2-.01 161.51 7.19 161.51 16.06z"></path><path fill="#f3a43d" d="M527.7 675.66v35.6h.51c5.46 9.51 56.4 16.95 118.48 16.95 62.07 0 113.01-7.45 118.48-16.95h.51v-35.6H527.7z"></path><path fill="#fed150" d="M571.02 676.79v47.17c12.03 1.56 26.05 2.75 41.37 3.47v-50.64h-41.37zm49.14 8.47v42.48c3.36.12 6.77.22 10.22.3v-42.78h-10.22z"></path><path fill="#ffe984" d="M765.68 675.66c0 8.87-53.28 16.06-118.99 16.06-65.72 0-118.99-7.19-118.99-16.06 0-8.87 53.28-16.06 118.99-16.06s118.99 7.19 118.99 16.06z"></path><path fill="#f3a43d" d="M736.82 676.64c0 6.72-40.35 12.17-90.13 12.17-49.79 0-90.14-5.45-90.14-12.17s40.36-12.17 90.14-12.17c49.78-.01 90.13 5.44 90.13 12.17z"></path><path fill="#fed150" d="M727.82 677.85c0 6.05-36.33 10.95-81.13 10.95-44.81 0-81.14-4.9-81.14-10.95 0-6.05 36.32-10.95 81.14-10.95 44.8 0 81.13 4.9 81.13 10.95z"></path><path fill="#f3a43d" d="M561.27 632.71v35.6h.52c5.46 9.51 56.41 16.95 118.48 16.95 62.06 0 113.01-7.45 118.48-16.95h.51v-35.6H561.27z"></path><path fill="#fed150" d="M604.59 633.84V681c12.02 1.56 26.04 2.75 41.36 3.47v-50.64h-41.36zm49.16 8.48v42.48c3.35.12 6.76.22 10.22.29v-42.78h-10.22z"></path><path fill="#ffe984" d="M799.25 632.71c0 8.87-53.27 16.06-118.98 16.06-65.73 0-119-7.19-119-16.06 0-8.87 53.27-16.06 119-16.06 65.72 0 118.98 7.19 118.98 16.06z"></path><path fill="#f3a43d" d="M770.41 633.68c0 6.71-40.37 12.16-90.14 12.16-49.79 0-90.14-5.45-90.14-12.16 0-6.72 40.36-12.17 90.14-12.17s90.14 5.45 90.14 12.17z"></path><path fill="#fed150" d="M761.4 634.89c0 6.05-36.32 10.95-81.12 10.95-44.8 0-81.13-4.9-81.13-10.95 0-6.05 36.33-10.95 81.13-10.95 44.79 0 81.12 4.9 81.12 10.95z"></path><path fill="#f3a43d" d="M272.92 670.24v35.6h.51c5.47 9.51 56.41 16.96 118.48 16.96 62.06 0 113.01-7.45 118.48-16.96h.52v-35.6H272.92z"></path><path fill="#fed150" d="M316.24 671.37v47.17c12.03 1.56 26.04 2.75 41.37 3.48v-50.64h-41.37zm49.15 8.48v42.48c3.37.12 6.77.22 10.22.29v-42.77h-10.22z"></path><path fill="#ffe984" d="M510.91 670.24c0 8.87-53.28 16.06-118.99 16.06s-118.99-7.19-118.99-16.06c0-8.87 53.28-16.06 118.99-16.06s118.99 7.19 118.99 16.06z"></path><path fill="#f3a43d" d="M482.06 671.22c0 6.72-40.36 12.17-90.14 12.17s-90.14-5.45-90.14-12.17 40.36-12.17 90.14-12.17 90.14 5.45 90.14 12.17z"></path><path fill="#fed150" d="M473.05 672.43c0 6.05-36.33 10.95-81.14 10.95-44.8 0-81.13-4.9-81.13-10.95 0-6.05 36.33-10.95 81.13-10.95 44.81 0 81.14 4.91 81.14 10.95z"></path><path fill="#f3a43d" d="M261.25 626.44v35.6h.51c5.46 9.5 56.41 16.96 118.48 16.96 62.06 0 113.01-7.45 118.48-16.96h.51v-35.6H261.25z"></path><path fill="#fed150" d="M304.56 627.57v47.17c12.03 1.56 26.04 2.75 41.36 3.47v-50.64h-41.36zm49.15 8.48v42.48c3.35.12 6.76.22 10.22.3v-42.78h-10.22z"></path><path fill="#ffe984" d="M499.22 626.44c0 8.87-53.27 16.06-118.98 16.06-65.72 0-118.99-7.19-118.99-16.06 0-8.87 53.28-16.06 118.99-16.06s118.98 7.19 118.98 16.06z"></path><path fill="#f3a43d" d="M470.38 627.41c0 6.72-40.36 12.17-90.14 12.17-49.79 0-90.15-5.44-90.15-12.17 0-6.71 40.36-12.16 90.15-12.16 49.78 0 90.14 5.45 90.14 12.16z"></path><path fill="#fed150" d="M461.36 628.63c0 6.05-36.32 10.95-81.12 10.95-44.82 0-81.13-4.9-81.13-10.95 0-6.05 36.31-10.95 81.13-10.95 44.81 0 81.12 4.91 81.12 10.95z"></path><path fill="#f3a43d" d="M246.64 582.64v35.6h.51c5.46 9.51 56.4 16.95 118.48 16.95 62.07 0 113.01-7.45 118.48-16.95h.51v-35.6H246.64z"></path><path fill="#fed150" d="M289.96 583.77v47.17c12.03 1.56 26.05 2.75 41.37 3.48v-50.64h-41.37zm49.15 8.48v42.48c3.36.12 6.76.23 10.22.3v-42.78h-10.22z"></path><path fill="#ffe984" d="M484.63 582.64c0 8.87-53.29 16.06-118.99 16.06-65.73 0-118.99-7.19-118.99-16.06 0-8.87 53.26-16.06 118.99-16.06 65.71 0 118.99 7.19 118.99 16.06z"></path><path fill="#f3a43d" d="M455.77 583.61c0 6.72-40.36 12.17-90.13 12.17-49.79 0-90.14-5.45-90.14-12.17s40.36-12.17 90.14-12.17c49.78.01 90.13 5.46 90.13 12.17z"></path><path fill="#fed150" d="M446.77 584.83c0 6.05-36.32 10.95-81.13 10.95-44.81 0-81.14-4.9-81.14-10.95 0-6.05 36.32-10.95 81.14-10.95 44.81 0 81.13 4.91 81.13 10.95z"></path><path fill="#f3a43d" d="M280.22 539.69v35.61h.52c5.46 9.5 56.41 16.95 118.48 16.95 62.07 0 113.01-7.45 118.48-16.95h.51v-35.61H280.22z"></path><path fill="#fed150" d="M323.53 540.82v47.17c12.04 1.56 26.05 2.75 41.37 3.47v-50.64h-41.37zm49.16 8.48v42.48c3.36.12 6.77.22 10.23.29V549.3h-10.23z"></path><path fill="#ffe984" d="M518.21 539.69c0 8.87-53.27 16.06-118.99 16.06s-119-7.19-119-16.06c0-8.87 53.28-16.06 119-16.06s118.99 7.19 118.99 16.06z"></path><path fill="#f3a43d" d="M489.35 540.66c0 6.72-40.36 12.17-90.13 12.17-49.78 0-90.14-5.45-90.14-12.17s40.36-12.17 90.14-12.17c49.77.01 90.13 5.45 90.13 12.17z"></path><path fill="#fed150" d="M480.34 541.88c0 6.05-36.32 10.95-81.12 10.95-44.81 0-81.14-4.9-81.14-10.95 0-6.05 36.32-10.95 81.14-10.95 44.81 0 81.12 4.9 81.12 10.95z"></path><path fill="#f3a43d" d="M256.62 497.65v35.6h.51c5.48 9.5 56.41 16.96 118.48 16.96 62.06 0 113.01-7.45 118.49-16.96h.51v-35.6H256.62z"></path><path fill="#fed150" d="M299.93 498.78v47.17c12.04 1.56 26.04 2.75 41.36 3.47v-50.64h-41.36zm49.16 8.48v42.48c3.36.12 6.76.22 10.22.3v-42.78h-10.22z"></path><path fill="#ffe984" d="M494.6 497.65c0 8.87-53.28 16.06-118.99 16.06-65.72 0-118.99-7.19-118.99-16.06 0-8.87 53.28-16.06 118.99-16.06 65.72 0 118.99 7.19 118.99 16.06z"></path><path fill="#f3a43d" d="M465.75 498.62c0 6.72-40.36 12.17-90.14 12.17s-90.14-5.44-90.14-12.17c0-6.72 40.36-12.16 90.14-12.16s90.14 5.45 90.14 12.16z"></path><path fill="#fed150" d="M456.75 499.84c0 6.05-36.33 10.95-81.14 10.95s-81.13-4.9-81.13-10.95c0-6.05 36.32-10.95 81.13-10.95 44.81 0 81.14 4.9 81.14 10.95z"></path><path fill="#f3a43d" d="M280.22 454.92v35.6h.52c5.46 9.51 56.41 16.96 118.48 16.96 62.07 0 113.01-7.45 118.48-16.96h.51v-35.6H280.22z"></path><path fill="#fed150" d="M323.55 456.05v47.17c12.03 1.56 26.04 2.75 41.36 3.47v-50.64h-41.36zm49.15 8.48v42.48c3.35.12 6.76.22 10.22.3v-42.78H372.7z"></path><path fill="#ffe984" d="M518.21 454.92c0 8.87-53.27 16.06-118.99 16.06s-119-7.19-119-16.06c0-8.87 53.28-16.06 119-16.06s118.99 7.19 118.99 16.06z"></path><path fill="#f3a43d" d="M489.36 455.89c0 6.72-40.37 12.17-90.14 12.17-49.78 0-90.14-5.44-90.14-12.17 0-6.72 40.36-12.17 90.14-12.17 49.77.01 90.14 5.46 90.14 12.17z"></path><path fill="#fed150" d="M480.34 457.11c0 6.05-36.32 10.95-81.12 10.95-44.81 0-81.13-4.9-81.13-10.95 0-6.05 36.32-10.95 81.13-10.95 44.81 0 81.12 4.9 81.12 10.95z"></path><path fill="#f7f7fc" d="M317.85 463.09c1.99-2.1 5.27-10.28 5.27-10.28s3.72 8 5.81 9.98c2.1 1.99 10.28 5.28 10.28 5.28s-8 3.71-9.99 5.81c-1.98 2.1-5.27 10.28-5.27 10.28s-3.72-8-5.81-9.99c-2.1-1.99-10.27-5.27-10.27-5.27s7.99-3.72 9.98-5.81zm165.82 62.44c1.99-2.1 5.27-10.28 5.27-10.28s3.71 8 5.81 9.98c2.1 1.99 10.28 5.27 10.28 5.27s-8 3.71-9.99 5.81c-1.98 2.1-5.27 10.28-5.27 10.28s-3.72-8-5.81-9.99c-2.1-1.99-10.27-5.27-10.27-5.27s7.99-3.7 9.98-5.8zm222.79 118.56c1.99-2.1 5.27-10.28 5.27-10.28s3.71 8 5.81 9.98c2.1 1.99 10.28 5.28 10.28 5.28s-8 3.71-9.99 5.81c-1.98 2.1-5.27 10.29-5.27 10.29s-3.72-8-5.81-9.99c-2.1-1.99-10.27-5.27-10.27-5.27s7.98-3.73 9.98-5.82zm-465.5-65.87c1.99-2.1 5.27-10.28 5.27-10.28s3.72 8 5.81 9.98c2.1 1.99 10.28 5.28 10.28 5.28s-8 3.71-9.99 5.81c-1.98 2.1-5.27 10.28-5.27 10.28s-3.72-8-5.81-9.98c-2.1-1.99-10.28-5.27-10.28-5.27s8-3.72 9.99-5.82z"></path><path fill="#9991e2" d="M437.73 324.62c-2.75-2-8.45-4.97-10.55 2.34-2.09 7.32 19.91 44.97 26.69 50.68 6.78 5.7 51.51 17.84 51.51 17.84s4.85-.53 1.32-6.4l-42.51-19.19c-.01.01-16.98-38.36-26.46-45.27z"></path><path fill="#9b4d34" d="M426.35 266.72s-9.54-10.31-23.74-.7c0 0-16.93 9.33-13.81 20.02 3.12 10.69-20.04 14.26-15.59 27.62 4.45 13.36-23.48 20.02-6.03 40.54 6.77 7.96 24.29 5.34 30.53-4.45 6.24-9.8 16.87-11.84 20.24-29.08 3.37-17.25 8.91-38.78 11.04-43.16 2.13-4.39.76-9.15-2.64-10.79z"></path><path fill="#ffd9a7" d="m441.56 500.51-.65 88.35 10.1-.21 16.07-97.82zm38.29-2.08 42.11 85.75 7.49-7.65-27.05-93.78z"></path><path fill="#6b5a84" d="M452.38 583.93s-5.72 5.48-11.42-.52c0 0-6.32 15.99 5.15 20.31 11.47 4.32 32.04 4.91 34.54-.16 3.6-7.31-14.46-15.29-28.27-19.63zm75.64-11.21s-1.17 7.73-8.55 6.72c0 0 2.26 20.18 13.46 15.32 11.21-4.86 27.92-19.91 27.53-26.3-.58-9.22-19.35-2.34-32.44 4.26z"></path><path fill="#e66254" d="M369.16 420.77s-12.98 41.83 27.56 47.02c40.54 5.19 42.46 12.15 39.97 17.85-2.49 5.7-8.77 20.58-8.77 20.58s60.87 9.83 78.61-22.87c0 0-1.84-50.7-64.48-70.82-.01-.01-33.96 17.95-72.89 8.24z"></path><path fill="#b1a6f2" d="M393.08 315.08c-11.3 9.43-22.05 34.48-23.93 105.69-.41 15.67 79.54 7.81 72.67-6.27-22.85-46.81 18.03-64.76-6.37-97.05.01 0-19.96-21.05-42.37-2.37z"></path><path fill="#efc18f" d="M409.77 288.03s4.08 10.89 0 17.86c-2.6 4.43 16.99 19.35 16.57 13.37-.54-7.7-4.21-12.43-.03-21.09l-16.54-10.14z"></path><path fill="#ffd9a8" d="M426.9 269.55c6.22 6.47 11.89 33.87 4.75 39.49-3.12 2.44-15.27-1.1-22.45-13.36-2.95-5.04-6.45-14.37-1.04-23.34 2.44-4.07 11.51-10.32 18.74-2.79z"></path><path fill="#9b4d34" d="M431.78 273.79c.47 3.66.46 5.79-7.87 4.63-10.23-1.43-8.86 5.81-7.94 8.29 2.69 7.3-9.74 2.42-6.44 11.14s-4.67 1.54-5.59.22c-.9-1.33-6.3-13.48.14-25.56 6.44-12.08 26.28-9.98 27.7 1.28z"></path><path fill="#ffe9ba" d="M409.13 427.85h96.79v7.33h-96.79z"></path><path fill="#725559" d="M446.82 435.18h68.94l10.14-45.31h-65.48z"></path><path fill="#efc18f" d="M438.28 435.91s22.67 7.42 15.48 9.38c-7.18 1.96-13.35 3.31-21.34-5.39l5.86-3.99z"></path><path fill="#9991e2" d="M407.56 328.02c-1.39-3.79-5.9-11.38-11.95-4.67-9.59 10.67-10.09 57.57-7.18 67.68 2.91 10.12 44.66 50.3 44.66 50.3s6.13-.25 6.13-6.28l-35.98-49.09c.01 0 9.12-44.85 4.32-57.94z"></path></svg>